# xmcd
#
# Track frame offsets:
#	150
#	22235
#	44460
#	61877
#	81027
#	101590
#	116802
#	128310
#	146475
#	164562
#
# Disc length: 2474 seconds
#
# Revision: 1
# Processed by: cddbd v1.5.1PL0 Copyright (c) Steve Scherf et al.
# Submitted via: CDex 1.50Beta5
#
DISCID=8509a80a
DTITLE=Rooky - 最新まんがベスト20〈CDツイン/ツインパック〉 Disc 1
DYEAR=1999
DGENRE=
TTITLE0=Rooky/『ねっ』
TTITLE1=Rooky/わぁお!
TTITLE2=勝誠二/始まりの唄
TTITLE3=COA/SPACE DREAMER
TTITLE4=Cyber Nation Network/SUPER VOYAGER
TTITLE5=ManaKana/おどるポンポコリン
TTITLE6=ManaKana/じゃがバタコーンさん
TTITLE7=影山ヒロノブ/なせばなるほどロボタック
TTITLE8=ロボタック・オール・スターズ/いいじゃない
TTITLE9=河合美智子/きっと明日は晴れるから
EXTD=
EXTT0=
EXTT1=
EXTT2=
EXTT3=
EXTT4=
EXTT5=
EXTT6=
EXTT7=
EXTT8=
EXTT9=
PLAYORDER=
